<?xml version="1.0" encoding="UTF-8" standalone="no"?>
<!DOCTYPE svg PUBLIC "-//W3C//DTD SVG 1.1//EN" "http://www.w3.org/Graphics/SVG/1.1/DTD/svg11.dtd">
<svg width="100%" height="100%" viewBox="0 0 22 22" version="1.1" xmlns="http://www.w3.org/2000/svg" xmlns:xlink="http://www.w3.org/1999/xlink" xml:space="preserve" xmlns:serif="http://www.serif.com/" style="fill-rule:evenodd;clip-rule:evenodd;stroke-linejoin:round;stroke-miterlimit:2;">
    <g>
        <g transform="matrix(-0,1.066667,-1.066667,-0,23.466667,-2.133333)">
            <path d="M22,5.25L22,18.75C22,20.544 20.544,22 18.75,22L5.25,22C3.456,22 2,20.544 2,18.75L2,5.25C2,3.456 3.456,2 5.25,2L18.75,2C20.544,2 22,3.456 22,5.25ZM20,5.25C20,4.56 19.44,4 18.75,4L5.25,4C4.56,4 4,4.56 4,5.25L4,18.75C4,19.44 4.56,20 5.25,20L18.75,20C19.44,20 20,19.44 20,18.75L20,5.25Z" style="fill:rgb(239,68,68);"/>
        </g>
        <g transform="matrix(-0,1.066667,-1.066667,-0,23.466667,-2.133333)">
            <path d="M6,3C6,2.448 6.448,2 7,2C7.552,2 8,2.448 8,3L8,21C8,21.552 7.552,22 7,22C6.448,22 6,21.552 6,21L6,3Z" style="fill:rgb(239,68,68);"/>
        </g>
        <g transform="matrix(-0,1.066667,-1.066667,-0,23.466667,-2.133333)">
            <path d="M3,8.5C2.448,8.5 2,8.052 2,7.5C2,6.948 2.448,6.5 3,6.5L7,6.5C7.552,6.5 8,6.948 8,7.5C8,8.052 7.552,8.5 7,8.5L3,8.5Z" style="fill:rgb(239,68,68);"/>
        </g>
        <g transform="matrix(-0,1.066667,-1.066667,-0,23.466667,-2.133333)">
            <path d="M3,13C2.448,13 2,12.552 2,12C2,11.448 2.448,11 3,11L21,11C21.552,11 22,11.448 22,12C22,12.552 21.552,13 21,13L3,13Z" style="fill:rgb(239,68,68);"/>
        </g>
        <g transform="matrix(-0,1.066667,-1.066667,-0,23.466667,-2.133333)">
            <path d="M3,17.5C2.448,17.5 2,17.052 2,16.5C2,15.948 2.448,15.5 3,15.5L7,15.5C7.552,15.5 8,15.948 8,16.5C8,17.052 7.552,17.5 7,17.5L3,17.5Z" style="fill:rgb(239,68,68);"/>
        </g>
        <g transform="matrix(-0,1.066667,-1.066667,-0,23.466667,-2.133333)">
            <path d="M16,3C16,2.448 16.448,2 17,2C17.552,2 18,2.448 18,3L18,21C18,21.552 17.552,22 17,22C16.448,22 16,21.552 16,21L16,3Z" style="fill:rgb(239,68,68);"/>
        </g>
        <g transform="matrix(-0,1.066667,-1.066667,-0,23.466667,-2.133333)">
            <path d="M17,8.5C16.448,8.5 16,8.052 16,7.5C16,6.948 16.448,6.5 17,6.5L21,6.5C21.552,6.5 22,6.948 22,7.5C22,8.052 21.552,8.5 21,8.5L17,8.5Z" style="fill:rgb(239,68,68);"/>
        </g>
        <g transform="matrix(-0,1.066667,-1.066667,-0,23.466667,-2.133333)">
            <path d="M17,17.5C16.448,17.5 16,17.052 16,16.5C16,15.948 16.448,15.5 17,15.5L21,15.5C21.552,15.5 22,15.948 22,16.5C22,17.052 21.552,17.5 21,17.5L17,17.5Z" style="fill:rgb(239,68,68);"/>
        </g>
    </g>
</svg>
